{"title":"Iron.Monkey.1993.BRrip.720p.Trilple.Audio.Chi-Eng-Hindi~MSBHATTI","uid":6873340,"size":2856259775,"categoryP":"video","categoryS":"hd___movies","magnet":"?xt=urn:btih:890c82ce7e6215e107f1d7e50624c49367569900&amp;dn=Iron.Monkey.1993.BRrip.720p.Trilple.Audio.Chi-Eng-Hindi%7EMSBHATTI&amp;tr=udp%3A%2F%2Ftracker.openbittorrent.com%3A80&amp;tr=udp%3A%2F%2Fopen.demonii.com%3A1337&amp;tr=udp%3A%2F%2Ftracker.coppersurfer.tk%3A6969&amp;tr=udp%3A%2F%2Fexodus.desync.com%3A6969","seeders":0,"leechers":4,"uploader":"mshareefb","files":11,"time":1323340337,"description":"Iron.Monkey.1993.BRrip.720p.Trilple.Audio.Chi-Eng-Hindi~MSBHATTI\n\nIMDB:- http://www.imdb.com/title/tt0108148/\n\nPLOT:- A doctor fights the corrupt authorities as a masked Robin Hood hero, even while another martial artist/doctor is forced to hunt for him.\n\nDirector: Woo-ping Yuen\nWriters: Hark Tsui, Tai-Muk Lau\nStars: Rongguang Yu, Donnie Yen and Jean Wang\n\nINFO:-\nGeneral\nComplete name                    : Iron.Monkey.1993.BRrip.720p.Trilple.Audio.Chi-Eng-Hindi~MSBHATTI\nFormat                           : Matroska\nFile size                        : 2.62 GiB\nDuration                         : 1h 22mn\nOverall bit rate                 : 4 553 Kbps\nEncoded date                     : UTC 2011-08-20 13:24:32\nWriting application              : mkvmerge v3.3.0 ('Language') built on Mar 24 2010 14:59:24\nWriting library                  : libebml v0.8.0 + libmatroska v0.9.0\n\nVideo\nID                               : 1\nFormat                           : AVC\nFormat/Info                      : Advanced Video Codec\nFormat profile                   : &lt;a class=&quot;__cf_email__&quot; href=&quot;/cdn-cgi/l/email-protection&quot; data-cfemail=&quot;e7af8e808fa7abd3c9d6&quot;&gt;[email&amp;#160;protected]&lt;/a&gt;&lt;script cf-hash='f9e31' type=&quot;text/javascript&quot;&gt;\n/* &lt;![CDATA[ */!function(){try{var t=&quot;currentScript&quot;in document?document.currentScript:function(){for(var t=document.getElementsByTagName(&quot;script&quot;),e=t.length;e--;)if(t[e].getAttribute(&quot;cf-hash&quot;))return t[e]}();if(t&amp;&amp;t.previousSibling){var e,r,n,i,c=t.previousSibling,a=c.getAttribute(&quot;data-cfemail&quot;);if(a){for(e=&quot;&quot;,r=parseInt(a.substr(0,2),16),n=2;a.length-n;n+=2)i=parseInt(a.substr(n,2),16)^r,e+=String.fromCharCode(i);e=document.createTextNode(e),c.parentNode.replaceChild(e,c)}}}catch(u){}}();/* ]]&gt; */&lt;/script&gt;\nFormat settings, CABAC           : Yes\nFormat settings, ReFrames        : 9 frames\nCodec ID                         : V_MPEG4/ISO/AVC\nDuration                         : 1h 22mn\nBit rate                         : 2 850 Kbps\nWidth                            : 1 280 pixels\nHeight                           : 692 pixels\nDisplay aspect ratio             : 1.850\nFrame rate                       : 25.000 fps\nOriginal frame rate              : 23.976 fps\nColor space                      : YUV\nChroma subsampling               : 4:2:0\nBit depth                        : 8 bits\nScan type                        : Progressive\nBits/(Pixel*Frame)               : 0.129\nStream size                      : 1.68 GiB (64%)\nWriting library                  : x264 core 115 r1995 c1e60b9\nEncoding settings                : cabac=1 / ref=9 / deblock=1:-3:-3 / analyse=0x3:0x113 / me=umh / subme=9 / psy=1 / psy_rd=0.90:0.00 / mixed_ref=1 / me_range=64 / chroma_me=1 / trellis=2 / 8x8dct=1 / cqm=0 / deadzone=21,11 / fast_pskip=0 / chroma_qp_offset=-2 / threads=12 / sliced_threads=0 / nr=0 / decimate=0 / interlaced=0 / bluray_compat=0 / constrained_intra=0 / bframes=5 / b_pyramid=2 / b_adapt=2 / b_bias=0 / direct=3 / weightb=1 / open_gop=0 / weightp=2 / keyint=250 / keyint_min=23 / scenecut=40 / intra_refresh=0 / rc=2pass / mbtree=0 / bitrate=2850 / ratetol=1.0 / qcomp=0.60 / qpmin=0 / qpmax=69 / qpstep=4 / cplxblur=20.0 / qblur=0.5 / ip_ratio=1.40 / pb_ratio=1.30 / aq=1:1.00\nLanguage                         : Chinese\n\nAudio #1\nID                               : 2\nFormat                           : AC-3\nFormat/Info                      : Audio Coding 3\nMode extension                   : CM (complete main)\nCodec ID                         : A_AC3\nDuration                         : 1h 22mn\nBit rate mode                    : Constant\nBit rate                         : 640 Kbps\nChannel(s)                       : 6 channels\nChannel positions                : Front: L C R, Side: L R, LFE\nSampling rate                    : 48.0 KHz\nBit depth                        : 16 bits\nCompression mode                 : Lossy\nStream size                      : 377 MiB (14%)\nTitle                            : MSBHATTI\nLanguage                         : Chinese\n\nAudio #2\nID                               : 3\nFormat                           : AC-3\nFormat/Info                      : Audio Coding 3\nMode extension                   : CM (complete main)\nCodec ID                         : A_AC3\nDuration                         : 1h 22mn\nBit rate mode                    : Constant\nBit rate                         : 640 Kbps\nChannel(s)                       : 6 channels\nChannel positions                : Front: L C R, Side: L R, LFE\nSampling rate                    : 48.0 KHz\nBit depth                        : 16 bits\nCompression mode                 : Lossy\nStream size                      : 377 MiB (14%)\nTitle                            : MSBHATTI\nLanguage                         : English\n\nAudio #3\nID                               : 4\nFormat                           : MPEG Audio\nFormat version                   : Version 1\nFormat profile                   : Layer 3\nCodec ID                         : A_MPEG/L3\nCodec ID/Hint                    : MP3\nDuration                         : 1h 22mn\nBit rate mode                    : Constant\nBit rate                         : 256 Kbps\nChannel(s)                       : 2 channels\nSampling rate                    : 48.0 KHz\nCompression mode                 : Lossy\nStream size                      : 151 MiB (6%)\nTitle                            : MSBHATTI\nLanguage                         : Hindi\n\nSCREENSHOTS:- &lt;a href=&quot;\nhttp://www.galleryhosted.com/Q7611DZJ4ANQ32R/001_Q7611DZJ4ANQ32R.png&quot; rel=&quot;nofollow&quot; target=&quot;_NEW&quot;&gt;\nhttp://www.galleryhosted.com/Q7611DZJ4ANQ32R/001_Q7611DZJ4ANQ32R.png&lt;/a&gt; &lt;a href=&quot;\nhttp://www.galleryhosted.com/Q7611DZJ4ANQ32R/002_Q7611DZJ4ANQ32R.png&quot; rel=&quot;nofollow&quot; target=&quot;_NEW&quot;&gt;\nhttp://www.galleryhosted.com/Q7611DZJ4ANQ32R/002_Q7611DZJ4ANQ32R.png&lt;/a&gt; &lt;a href=&quot;\nhttp://www.galleryhosted.com/Q7611DZJ4ANQ32R/003_Q7611DZJ4ANQ32R.png&quot; rel=&quot;nofollow&quot; target=&quot;_NEW&quot;&gt;\nhttp://www.galleryhosted.com/Q7611DZJ4ANQ32R/003_Q7611DZJ4ANQ32R.png&lt;/a&gt; &lt;a href=&quot;\nhttp://www.galleryhosted.com/Q7611DZJ4ANQ32R/004_Q7611DZJ4ANQ32R.png&quot; rel=&quot;nofollow&quot; target=&quot;_NEW&quot;&gt;\nhttp://www.galleryhosted.com/Q7611DZJ4ANQ32R/004_Q7611DZJ4ANQ32R.png&lt;/a&gt; &lt;a href=&quot;\nhttp://www.galleryhosted.com/Q7611DZJ4ANQ32R/006_Q7611DZJ4ANQ32R.png&quot; rel=&quot;nofollow&quot; target=&quot;_NEW&quot;&gt;\nhttp://www.galleryhosted.com/Q7611DZJ4ANQ32R/006_Q7611DZJ4ANQ32R.png&lt;/a&gt; &lt;a href=&quot;\nhttp://www.galleryhosted.com/Q7611DZJ4ANQ32R/009_Q7611DZJ4ANQ32R.png&quot; rel=&quot;nofollow&quot; target=&quot;_NEW&quot;&gt;\nhttp://www.galleryhosted.com/Q7611DZJ4ANQ32R/009_Q7611DZJ4ANQ32R.png&lt;/a&gt;\n\nNOTE:- IF U LIKE MY WORK SO COMMENT PLZ\n\nREGARDS\n\nMSBHATTI","torrent":{"xt":"urn:btih:890c82ce7e6215e107f1d7e50624c49367569900","amp;dn":"Iron.Monkey.1993.BRrip.720p.Trilple.Audio.Chi-Eng-Hindi%7EMSBHATTI","amp;tr":["udp%3A%2F%2Ftracker.openbittorrent.com%3A80","udp%3A%2F%2Fopen.demonii.com%3A1337","udp%3A%2F%2Ftracker.coppersurfer.tk%3A6969","udp%3A%2F%2Fexodus.desync.com%3A6969"],"infoHash":"890c82ce7e6215e107f1d7e50624c49367569900","infoHashBuffer":{"type":"Buffer","data":[137,12,130,206,126,98,21,225,7,241,215,229,6,36,196,147,103,86,153,0]},"announce":[],"urlList":[]}}